<?xml version="1.0" encoding="UTF-8"?><svg id="Ebene_1" xmlns="http://www.w3.org/2000/svg" viewBox="0 0 1000 155"><defs><style>.cls-1{fill:#fff;}</style></defs><path class="cls-1" d="M923.26,74.21c0-3.5-2.4-7.01-7.01-7.01h-6.83s-12.99,.01-12.99,.01h0s-6.83-.01-6.83-.01c-4.61,0-7.01,3.51-7.01,7.01s2.4,7.01,7.01,7.01h6.83s12.99-.01,12.99-.01h0s6.83,.01,6.83,.01c4.61,0,7.01-3.51,7.01-7.01Z"/><path class="cls-1" d="M822.36,51.51c3.5,0,7.01-2.4,7.01-7.01v-6.83h-.07v-1.38h.06v-9.66h50.73c4.98,0,7.01-3.51,7.01-7.01s-2.03-7.02-7.01-7.02h-57.73c-3.69,0-7.01,3.32-7.01,7.02v16.66h.01v1.38h-.01v6.83c0,4.61,3.51,7.01,7.01,7.01Z"/><path class="cls-1" d="M880.09,126.05h-50.73v-13.85h0v-.23h.01v-6.83c0-4.61-3.51-7.01-7.01-7.01s-7.01,2.4-7.01,7.01v6.83h.07v.23h-.07v20.85c0,3.69,3.32,7.01,7.01,7.01h57.73c4.98,0,7.01-3.5,7.01-7.01s-2.03-7.01-7.01-7.01Z"/><path class="cls-1" d="M990.51,36.28V19.62c0-3.7-3.32-7.02-7.01-7.02h-57.73c-4.98,0-7.01,3.51-7.01,7.02s2.03,7.01,7.01,7.01h50.73v9.66h.06v1.38h-.07v6.83c0,4.61,3.51,7.01,7.01,7.01s7.01-2.4,7.01-7.01v-6.83h-.01v-1.38h.01Z"/><path class="cls-1" d="M983.5,98.13c-3.5,0-7.01,2.4-7.01,7.01v6.83h.01v.23h0v13.85h-50.73c-4.98,0-7.01,3.5-7.01,7.01s2.03,7.01,7.01,7.01h57.73c3.69,0,7.01-3.32,7.01-7.01v-20.85h-.07v-.23h.07v-6.83c0-4.61-3.51-7.01-7.01-7.01Z"/><path class="cls-1" d="M46.93,65.91c-9.96-5.35-21.39-9.41-21.39-22.87,0-6.45,4.98-17.52,20.29-17.52h1.66c11.25,0,19,6.64,19.92,15.68,.55,4.42,3.87,6.64,7.37,6.64s6.64-2.21,6.64-6.82c0-16.97-15.86-29.51-33.57-29.51h-1.85c-19.37,0-34.68,13.65-34.68,31.54,0,23.61,17.89,28.03,35.6,38,11.25,6.27,21.95,10.51,21.95,25.64,0,13.28-6.27,20.47-20.84,20.47h-1.85c-11.99,0-22.69-6.82-22.69-19.92,0-4.98-3.5-7.01-7.01-7.01s-7.01,2.21-7.01,6.82c0,22.32,17.52,33.94,36.52,33.94h1.66c22.32,0,35.23-12.91,35.23-34.12,0-25.08-17.52-30.98-35.97-40.95Z"/><path class="cls-1" d="M337.6,16.66c-1.1-3.5-4.61-5.16-8.48-5.16s-7.19,1.66-8.3,5.16l-35.97,115.47c-.18,.92-.37,1.66-.37,2.21,0,3.69,2.95,6.64,7.19,6.64,2.77,0,5.35-1.29,6.46-4.79l8.3-26.56h45.56l8.12,26.56c1.1,3.5,3.87,4.79,6.64,4.79,4.24,0,7.19-2.95,7.19-6.64,0-.55-.18-1.29-.37-2.21l-35.97-115.47Zm-26.75,78.95l18.26-59.02,18.44,59.02h-36.71Z"/><path class="cls-1" d="M638.05,11.5c-3.51,0-7.01,2.4-7.01,7.01v115.65c0,4.61,3.51,6.82,7.01,6.82s7.01-2.21,7.01-6.82V18.51c0-4.61-3.51-7.01-7.01-7.01Z"/><path class="cls-1" d="M177.8,67.2c-4.61,0-7.01,3.51-7.01,7.01s2.4,7.01,7.01,7.01h6.83s12.99-.01,12.99-.01h0s6.83,.01,6.83,.01c4.61,0,7.01-3.51,7.01-7.01s-2.4-7.01-7.01-7.01h-6.83s-12.99,.01-12.99,.01h0s-6.83-.01-6.83-.01Z"/><path class="cls-1" d="M219.94,12.6h-57.73c-3.69,0-7.01,3.32-7.01,7.02v16.66h.01v1.38h-.01v6.83c0,4.61,3.51,7.01,7.01,7.01s7.01-2.4,7.01-7.01v-6.83h-.07v-1.38h.06v-9.66h50.72c4.98,0,7.01-3.51,7.01-7.01s-2.03-7.02-7.01-7.02Z"/><path class="cls-1" d="M219.94,126.05h-50.72v-13.85h0v-.23h.01v-6.83c0-4.61-3.51-7.01-7.01-7.01s-7.01,2.4-7.01,7.01v6.83h.07v.23h-.07v20.85c0,3.69,3.32,7.01,7.01,7.01h57.73c4.98,0,7.01-3.5,7.01-7.01s-2.03-7.01-7.01-7.01Z"/><path class="cls-1" d="M535.95,16.66c-1.1-3.5-4.61-5.16-8.48-5.16s-7.2,1.66-8.3,5.16l-35.97,115.47c-.19,.92-.37,1.66-.37,2.21,0,3.69,2.95,6.64,7.19,6.64,2.77,0,5.35-1.29,6.46-4.79l8.3-26.56h45.56l8.12,26.56c1.1,3.5,3.87,4.79,6.64,4.79,4.24,0,7.19-2.95,7.19-6.64,0-.55-.18-1.29-.37-2.21l-35.97-115.47Zm-26.75,78.95l18.26-59.02,18.44,59.02h-36.71Z"/><path class="cls-1" d="M424.9,124.28c-3.73,0-7.45,2.55-7.45,7.45v4.31c0,4.9,3.72,7.45,7.45,7.45s7.45-2.55,7.45-7.45v-4.31c0-4.9-3.72-7.45-7.45-7.45Z"/></svg>